STARTFONT 2.1
COMMENT +
COMMENT  Copyright 1984-1989, 1994 Adobe Systems Incorporated.
COMMENT  Copyright 1988, 1994 Digital Equipment Corporation.
COMMENT  Copyright 1996 BIZNET Poland, Inc.
COMMENT
COMMENT  Permission to use, copy, modify, distribute and sell this software
COMMENT  and its documentation for any purpose and without fee is hereby
COMMENT  granted, provided that the above copyright notices appear in all
COMMENT  copies and that both those copyright notices and this permission
COMMENT  notice appear in supporting documentation, and that the names of
COMMENT  Adobe Systems and Digital Equipment Corporation not be used in
COMMENT  advertising or publicity pertaining to distribution of the software
COMMENT  without specific, written prior permission.  Adobe Systems and
COMMENT  Digital Equipment Corporation make no representations about the
COMMENT  suitability of this software for any purpose.  It is provided "as
COMMENT  is" without express or implied warranty.
COMMENT -
FONT -BIZNET-Anagnostiko-Medium-R-Normal--11-80-100-100-P-60-ISO8859-2
SIZE 8 100 100
FONTBOUNDINGBOX 11 11 -1 -2
STARTPROPERTIES 25
FOUNDRY "BIZNET"
FAMILY_NAME "BIZNET Anagnostiko"
WEIGHT_NAME "Medium"
SLANT "R"
SETWIDTH_NAME "Normal"
ADD_STYLE_NAME ""
PIXEL_SIZE 11
POINT_SIZE 80
RESOLUTION_X 100
RESOLUTION_Y 100
SPACING "P"
AVERAGE_WIDTH 60
CHARSET_REGISTRY "ISO8859"
CHARSET_ENCODING "2"
CAP_HEIGHT 8
X_HEIGHT 5
FONT_ASCENT 10
FONT_DESCENT 2
FACE_NAME "BIZNET Anagnostiko Roman"
DEFAULT_CHAR 32
RELATIVE_SETWIDTH 50
RELATIVE_WEIGHT 50
CHARSET_COLLECTIONS "ASCII ISO8859-2"
COPYRIGHT "Copyright (c) 1984, 1987 Adobe Systems Incorporated. All Rights Reserved. Copyright (c) 1988, 1991 Digital Equipment Corporation. All Rights Reserved. Copyright (c) 1996 BIZNET Poland, Inc. All Rights Reserved."
NOTICE "The name "BIZNET" is a registered trademark of BIZNET Poland, Inc."
ENDPROPERTIES
CHARS 190
STARTCHAR space
ENCODING 32
SWIDTH 278 0
DWIDTH 3 0
BBX 1 1 0 0
BITMAP
00
ENDCHAR
STARTCHAR exclam
ENCODING 33
SWIDTH 296 0
DWIDTH 4 0
BBX 1 8 1 0
BITMAP
80
80
80
80
80
00
80
80
ENDCHAR
STARTCHAR quotedbl
ENCODING 34
SWIDTH 389 0
DWIDTH 6 0
BBX 3 3 1 5
BITMAP
A0
A0
A0
ENDCHAR
STARTCHAR numbersign
ENCODING 35
SWIDTH 556 0
DWIDTH 8 0
BBX 7 8 0 0
BITMAP
14
14
7E
28
28
FC
50
50
ENDCHAR
STARTCHAR dollar
ENCODING 36
SWIDTH 556 0
DWIDTH 5 0
BBX 4 10 0 -1
BITMAP
20
70
A0
A0
60
50
50
50
E0
40
ENDCHAR
STARTCHAR percent
ENCODING 37
SWIDTH 833 0
DWIDTH 9 0
BBX 8 8 0 0
BITMAP
64
94
98
68
16
19
29
26
ENDCHAR
STARTCHAR ampersand
ENCODING 38
SWIDTH 815 0
DWIDTH 10 0
BBX 9 8 0 0
BITMAP
3000
4800
5000
2600
5400
8800
8C80
7300
ENDCHAR
STARTCHAR quoteright
ENCODING 39
SWIDTH 204 0
DWIDTH 3 0
BBX 2 3 0 5
BITMAP
40
40
80
ENDCHAR
STARTCHAR parenleft
ENCODING 40
SWIDTH 333 0
DWIDTH 4 0
BBX 3 9 0 -1
BITMAP
20
40
40
80
80
80
40
40
20
ENDCHAR
STARTCHAR parenright
ENCODING 41
SWIDTH 333 0
DWIDTH 4 0
BBX 3 9 0 -1
BITMAP
80
40
40
20
20
20
40
40
80
ENDCHAR
STARTCHAR asterisk
ENCODING 42
SWIDTH 500 0
DWIDTH 6 0
BBX 5 5 0 3
BITMAP
20
A8
70
A8
20
ENDCHAR
STARTCHAR plus
ENCODING 43
SWIDTH 606 0
DWIDTH 6 0
BBX 5 5 0 0
BITMAP
20
20
F8
20
20
ENDCHAR
STARTCHAR comma
ENCODING 44
SWIDTH 278 0
DWIDTH 3 0
BBX 2 3 0 -2
BITMAP
40
40
80
ENDCHAR
STARTCHAR minus
ENCODING 45
SWIDTH 606 0
DWIDTH 6 0
BBX 5 1 0 2
BITMAP
F8
ENDCHAR
STARTCHAR period
ENCODING 46
SWIDTH 278 0
DWIDTH 4 0
BBX 1 2 1 0
BITMAP
80
80
ENDCHAR
STARTCHAR slash
ENCODING 47
SWIDTH 278 0
DWIDTH 4 0
BBX 3 9 0 -1
BITMAP
20
20
20
40
40
40
80
80
80
ENDCHAR
STARTCHAR zero
ENCODING 48
SWIDTH 556 0
DWIDTH 5 0
BBX 4 8 0 0
BITMAP
60
90
90
90
90
90
90
60
ENDCHAR
STARTCHAR one
ENCODING 49
SWIDTH 556 0
DWIDTH 5 0
BBX 3 8 1 0
BITMAP
40
C0
40
40
40
40
40
E0
ENDCHAR
STARTCHAR two
ENCODING 50
SWIDTH 556 0
DWIDTH 5 0
BBX 4 8 0 0
BITMAP
60
90
90
10
20
40
90
F0
ENDCHAR
STARTCHAR three
ENCODING 51
SWIDTH 556 0
DWIDTH 5 0
BBX 4 8 0 0
BITMAP
60
90
10
60
10
90
90
60
ENDCHAR
STARTCHAR four
ENCODING 52
SWIDTH 556 0
DWIDTH 5 0
BBX 5 8 0 0
BITMAP
10
30
50
50
90
F8
10
38
ENDCHAR
STARTCHAR five
ENCODING 53
SWIDTH 556 0
DWIDTH 5 0
BBX 4 8 0 0
BITMAP
F0
80
80
E0
10
10
90
60
ENDCHAR
STARTCHAR six
ENCODING 54
SWIDTH 556 0
DWIDTH 5 0
BBX 4 8 0 0
BITMAP
70
90
80
E0
90
90
90
60
ENDCHAR
STARTCHAR seven
ENCODING 55
SWIDTH 556 0
DWIDTH 5 0
BBX 4 8 0 0
BITMAP
F0
90
20
20
20
40
40
40
ENDCHAR
STARTCHAR eight
ENCODING 56
SWIDTH 556 0
DWIDTH 5 0
BBX 4 8 0 0
BITMAP
60
90
90
60
90
90
90
60
ENDCHAR
STARTCHAR nine
ENCODING 57
SWIDTH 556 0
DWIDTH 5 0
BBX 4 8 0 0
BITMAP
60
90
90
90
70
10
90
E0
ENDCHAR
STARTCHAR colon
ENCODING 58
SWIDTH 278 0
DWIDTH 4 0
BBX 1 5 1 0
BITMAP
80
80
00
80
80
ENDCHAR
STARTCHAR semicolon
ENCODING 59
SWIDTH 278 0
DWIDTH 4 0
BBX 2 6 0 -1
BITMAP
40
40
00
40
40
80
ENDCHAR
STARTCHAR less
ENCODING 60
SWIDTH 606 0
DWIDTH 7 0
BBX 6 5 0 0
BITMAP
0C
30
C0
30
0C
ENDCHAR
STARTCHAR equal
ENCODING 61
SWIDTH 606 0
DWIDTH 6 0
BBX 5 3 0 1
BITMAP
F8
00
F8
ENDCHAR
STARTCHAR greater
ENCODING 62
SWIDTH 606 0
DWIDTH 7 0
BBX 6 5 0 0
BITMAP
C0
30
0C
30
C0
ENDCHAR
STARTCHAR question
ENCODING 63
SWIDTH 444 0
DWIDTH 5 0
BBX 4 8 0 0
BITMAP
60
90
10
20
40
00
40
40
ENDCHAR
STARTCHAR at
ENCODING 64
SWIDTH 737 0
DWIDTH 9 0
BBX 8 10 0 -1
BITMAP
3C
42
81
9D
A5
AD
B6
80
40
3C
ENDCHAR
STARTCHAR A
ENCODING 65
SWIDTH 722 0
DWIDTH 8 0
BBX 7 8 0 0
BITMAP
10
10
28
28
44
7C
44
EE
ENDCHAR
STARTCHAR B
ENCODING 66
SWIDTH 722 0
DWIDTH 7 0
BBX 6 8 0 0
BITMAP
F8
44
44
78
44
44
44
F8
ENDCHAR
STARTCHAR C
ENCODING 67
SWIDTH 722 0
DWIDTH 7 0
BBX 6 8 0 0
BITMAP
3C
44
80
80
80
80
44
38
ENDCHAR
STARTCHAR D
ENCODING 68
SWIDTH 778 0
DWIDTH 8 0
BBX 7 8 0 0
BITMAP
F8
44
42
42
42
42
44
F8
ENDCHAR
STARTCHAR E
ENCODING 69
SWIDTH 722 0
DWIDTH 7 0
BBX 6 8 0 0
BITMAP
FC
44
54
70
50
44
44
FC
ENDCHAR
STARTCHAR F
ENCODING 70
SWIDTH 667 0
DWIDTH 7 0
BBX 6 8 0 0
BITMAP
FC
44
54
70
50
40
40
E0
ENDCHAR
STARTCHAR G
ENCODING 71
SWIDTH 778 0
DWIDTH 8 0
BBX 7 8 0 0
BITMAP
3C
44
80
80
8E
84
44
38
ENDCHAR
STARTCHAR H
ENCODING 72
SWIDTH 833 0
DWIDTH 9 0
BBX 8 8 0 0
BITMAP
E7
42
42
7E
42
42
42
E7
ENDCHAR
STARTCHAR I
ENCODING 73
SWIDTH 407 0
DWIDTH 4 0
BBX 3 8 0 0
BITMAP
E0
40
40
40
40
40
40
E0
ENDCHAR
STARTCHAR J
ENCODING 74
SWIDTH 556 0
DWIDTH 5 0
BBX 4 8 0 0
BITMAP
70
20
20
20
20
A0
A0
C0
ENDCHAR
STARTCHAR K
ENCODING 75
SWIDTH 778 0
DWIDTH 8 0
BBX 7 8 0 0
BITMAP
E6
44
48
50
70
48
44
EE
ENDCHAR
STARTCHAR L
ENCODING 76
SWIDTH 667 0
DWIDTH 7 0
BBX 6 8 0 0
BITMAP
E0
40
40
40
40
44
44
FC
ENDCHAR
STARTCHAR M
ENCODING 77
SWIDTH 944 0
DWIDTH 10 0
BBX 9 8 0 0
BITMAP
C180
6300
6300
5500
5500
5500
4900
EB80
ENDCHAR
STARTCHAR N
ENCODING 78
SWIDTH 815 0
DWIDTH 9 0
BBX 8 8 0 0
BITMAP
E7
62
52
52
4A
4A
46
E6
ENDCHAR
STARTCHAR O
ENCODING 79
SWIDTH 778 0
DWIDTH 8 0
BBX 7 8 0 0
BITMAP
38
44
82
82
82
82
44
38
ENDCHAR
STARTCHAR P
ENCODING 80
SWIDTH 667 0
DWIDTH 7 0
BBX 6 8 0 0
BITMAP
F8
44
44
44
78
40
40
E0
ENDCHAR
STARTCHAR Q
ENCODING 81
SWIDTH 778 0
DWIDTH 8 0
BBX 7 9 0 -1
BITMAP
38
44
82
82
82
B2
4C
38
06
ENDCHAR
STARTCHAR R
ENCODING 82
SWIDTH 722 0
DWIDTH 8 0
BBX 7 8 0 0
BITMAP
F8
44
44
48
78
44
44
C6
ENDCHAR
STARTCHAR S
ENCODING 83
SWIDTH 630 0
DWIDTH 6 0
BBX 5 8 0 0
BITMAP
78
88
80
E0
18
08
88
F0
ENDCHAR
STARTCHAR T
ENCODING 84
SWIDTH 667 0
DWIDTH 8 0
BBX 7 8 0 0
BITMAP
FE
92
92
10
10
10
10
38
ENDCHAR
STARTCHAR U
ENCODING 85
SWIDTH 815 0
DWIDTH 8 0
BBX 7 8 0 0
BITMAP
EE
44
44
44
44
44
44
38
ENDCHAR
STARTCHAR V
ENCODING 86
SWIDTH 722 0
DWIDTH 8 0
BBX 7 8 0 0
BITMAP
EE
44
44
44
28
28
10
10
ENDCHAR
STARTCHAR W
ENCODING 87
SWIDTH 981 0
DWIDTH 12 0
BBX 11 8 0 0
BITMAP
EEE0
4440
4440
2A80
2A80
2A80
1100
1100
ENDCHAR
STARTCHAR X
ENCODING 88
SWIDTH 704 0
DWIDTH 7 0
BBX 6 8 0 0
BITMAP
CC
48
48
30
30
48
48
CC
ENDCHAR
STARTCHAR Y
ENCODING 89
SWIDTH 704 0
DWIDTH 8 0
BBX 7 8 0 0
BITMAP
C6
44
28
28
10
10
10
38
ENDCHAR
STARTCHAR Z
ENCODING 90
SWIDTH 611 0
DWIDTH 6 0
BBX 5 8 0 0
BITMAP
F8
88
90
20
20
48
88
F8
ENDCHAR
STARTCHAR bracketleft
ENCODING 91
SWIDTH 333 0
DWIDTH 3 0
BBX 2 9 0 -1
BITMAP
C0
80
80
80
80
80
80
80
C0
ENDCHAR
STARTCHAR backslash
ENCODING 92
SWIDTH 606 0
DWIDTH 5 0
BBX 4 8 0 0
BITMAP
80
80
40
40
20
20
10
10
ENDCHAR
STARTCHAR bracketright
ENCODING 93
SWIDTH 333 0
DWIDTH 3 0
BBX 2 9 0 -1
BITMAP
C0
40
40
40
40
40
40
40
C0
ENDCHAR
STARTCHAR asciicircum
ENCODING 94
SWIDTH 606 0
DWIDTH 6 0
BBX 5 6 0 2
BITMAP
20
20
50
50
88
88
ENDCHAR
STARTCHAR underscore
ENCODING 95
SWIDTH 500 0
DWIDTH 6 0
BBX 6 1 0 -2
BITMAP
FC
ENDCHAR
STARTCHAR quoteleft
ENCODING 96
SWIDTH 204 0
DWIDTH 3 0
BBX 2 3 0 5
BITMAP
40
80
80
ENDCHAR
STARTCHAR a
ENCODING 97
SWIDTH 556 0
DWIDTH 6 0
BBX 5 5 0 0
BITMAP
60
90
70
90
F8
ENDCHAR
STARTCHAR b
ENCODING 98
SWIDTH 556 0
DWIDTH 5 0
BBX 5 8 -1 0
BITMAP
C0
40
40
70
48
48
48
70
ENDCHAR
STARTCHAR c
ENCODING 99
SWIDTH 444 0
DWIDTH 5 0
BBX 4 5 0 0
BITMAP
70
90
80
90
60
ENDCHAR
STARTCHAR d
ENCODING 100
SWIDTH 574 0
DWIDTH 6 0
BBX 5 8 0 0
BITMAP
30
10
10
70
90
90
90
78
ENDCHAR
STARTCHAR e
ENCODING 101
SWIDTH 500 0
DWIDTH 5 0
BBX 4 5 0 0
BITMAP
60
90
F0
80
70
ENDCHAR
STARTCHAR f
ENCODING 102
SWIDTH 333 0
DWIDTH 4 0
BBX 4 8 0 0
BITMAP
30
50
40
E0
40
40
40
E0
ENDCHAR
STARTCHAR g
ENCODING 103
SWIDTH 537 0
DWIDTH 6 0
BBX 5 7 0 -2
BITMAP
78
90
A0
40
78
88
70
ENDCHAR
STARTCHAR h
ENCODING 104
SWIDTH 611 0
DWIDTH 6 0
BBX 6 8 -1 0
BITMAP
C0
40
40
70
48
48
48
EC
ENDCHAR
STARTCHAR i
ENCODING 105
SWIDTH 315 0
DWIDTH 4 0
BBX 3 7 0 0
BITMAP
40
00
C0
40
40
40
E0
ENDCHAR
STARTCHAR j
ENCODING 106
SWIDTH 296 0
DWIDTH 4 0
BBX 2 9 0 -2
BITMAP
40
00
C0
40
40
40
40
40
80
ENDCHAR
STARTCHAR k
ENCODING 107
SWIDTH 593 0
DWIDTH 7 0
BBX 6 8 0 0
BITMAP
C0
40
40
58
50
70
48
EC
ENDCHAR
STARTCHAR l
ENCODING 108
SWIDTH 315 0
DWIDTH 4 0
BBX 3 8 0 0
BITMAP
C0
40
40
40
40
40
40
E0
ENDCHAR
STARTCHAR m
ENCODING 109
SWIDTH 889 0
DWIDTH 10 0
BBX 9 5 0 0
BITMAP
B600
4900
4900
4900
ED80
ENDCHAR
STARTCHAR n
ENCODING 110
SWIDTH 611 0
DWIDTH 7 0
BBX 6 5 0 0
BITMAP
B0
48
48
48
EC
ENDCHAR
STARTCHAR o
ENCODING 111
SWIDTH 500 0
DWIDTH 5 0
BBX 4 5 0 0
BITMAP
60
90
90
90
60
ENDCHAR
STARTCHAR p
ENCODING 112
SWIDTH 574 0
DWIDTH 5 0
BBX 4 7 0 -2
BITMAP
60
90
90
90
E0
80
C0
ENDCHAR
STARTCHAR q
ENCODING 113
SWIDTH 556 0
DWIDTH 6 0
BBX 5 7 0 -2
BITMAP
68
90
90
90
70
10
38
ENDCHAR
STARTCHAR r
ENCODING 114
SWIDTH 444 0
DWIDTH 5 0
BBX 4 5 0 0
BITMAP
D0
60
40
40
E0
ENDCHAR
STARTCHAR s
ENCODING 115
SWIDTH 463 0
DWIDTH 5 0
BBX 4 5 0 0
BITMAP
70
80
60
10
E0
ENDCHAR
STARTCHAR t
ENCODING 116
SWIDTH 389 0
DWIDTH 3 0
BBX 3 7 0 0
BITMAP
80
80
C0
80
80
80
60
ENDCHAR
STARTCHAR u
ENCODING 117
SWIDTH 611 0
DWIDTH 6 0
BBX 5 5 0 0
BITMAP
90
90
90
90
68
ENDCHAR
STARTCHAR v
ENCODING 118
SWIDTH 537 0
DWIDTH 6 0
BBX 6 5 0 0
BITMAP
DC
88
50
50
20
ENDCHAR
STARTCHAR w
ENCODING 119
SWIDTH 778 0
DWIDTH 8 0
BBX 8 5 0 0
BITMAP
93
AA
AA
44
44
ENDCHAR
STARTCHAR x
ENCODING 120
SWIDTH 537 0
DWIDTH 6 0
BBX 5 5 0 0
BITMAP
D8
50
20
50
D8
ENDCHAR
STARTCHAR y
ENCODING 121
SWIDTH 537 0
DWIDTH 6 0
BBX 6 7 0 -2
BITMAP
DC
88
50
50
20
20
C0
ENDCHAR
STARTCHAR z
ENCODING 122
SWIDTH 481 0
DWIDTH 5 0
BBX 4 5 0 0
BITMAP
F0
20
40
80
F0
ENDCHAR
STARTCHAR braceleft
ENCODING 123
SWIDTH 333 0
DWIDTH 4 0
BBX 3 9 0 -1
BITMAP
20
40
40
40
80
40
40
40
20
ENDCHAR
STARTCHAR bar
ENCODING 124
SWIDTH 606 0
DWIDTH 6 0
BBX 1 8 2 0
BITMAP
80
80
80
80
80
80
80
80
ENDCHAR
STARTCHAR braceright
ENCODING 125
SWIDTH 333 0
DWIDTH 4 0
BBX 3 9 0 -1
BITMAP
80
40
40
40
20
40
40
40
80
ENDCHAR
STARTCHAR asciitilde
ENCODING 126
SWIDTH 606 0
DWIDTH 7 0
BBX 6 2 0 2
BITMAP
64
98
ENDCHAR
STARTCHAR Aogonek
ENCODING 161
SWIDTH 722 0
DWIDTH 8 0
BBX 7 10 0 -2
BITMAP
10
10
28
28
44
7C
44
EE
04
06
ENDCHAR
STARTCHAR breve
ENCODING 162
SWIDTH 490 0
DWIDTH 6 0
BBX 4 2 1 6
BITMAP
90
60
ENDCHAR
STARTCHAR Lslash
ENCODING 163
SWIDTH 667 0
DWIDTH 7 0
BBX 6 8 0 0
BITMAP
E0
40
40
60
C0
44
44
FC
ENDCHAR
STARTCHAR currency
ENCODING 164
SWIDTH 606 0
DWIDTH 7 0
BBX 6 6 0 1
BITMAP
84
78
48
48
78
84
ENDCHAR
STARTCHAR Lcaron
ENCODING 165
SWIDTH 667 0
DWIDTH 7 0
BBX 6 8 0 0
BITMAP
E8
48
50
40
40
44
44
FC
ENDCHAR
STARTCHAR Sacute
ENCODING 166
SWIDTH 630 0
DWIDTH 6 0
BBX 5 11 0 0
BITMAP
10
20
00
78
88
80
E0
18
08
88
F0
ENDCHAR
STARTCHAR section
ENCODING 167
SWIDTH 500 0
DWIDTH 5 0
BBX 4 10 0 -2
BITMAP
70
90
80
60
90
90
60
10
90
E0
ENDCHAR
STARTCHAR dieresis
ENCODING 168
SWIDTH 333 0
DWIDTH 4 0
BBX 3 1 0 6
BITMAP
A0
ENDCHAR
STARTCHAR Scaron
ENCODING 169
SWIDTH 630 0
DWIDTH 6 0
BBX 5 11 0 0
BITMAP
28
10
00
78
88
80
E0
18
08
88
F0
ENDCHAR
STARTCHAR Scedilla
ENCODING 170
SWIDTH 630 0
DWIDTH 6 0
BBX 5 10 0 -2
BITMAP
78
88
80
E0
18
08
88
F0
20
60
ENDCHAR
STARTCHAR Tcaron
ENCODING 171
SWIDTH 667 0
DWIDTH 8 0
BBX 7 11 0 0
BITMAP
28
10
00
FE
92
92
10
10
10
10
38
ENDCHAR
STARTCHAR Zacute
ENCODING 172
SWIDTH 611 0
DWIDTH 6 0
BBX 5 11 0 0
BITMAP
10
20
00
F8
88
90
20
20
48
88
F8
ENDCHAR
STARTCHAR hyphen
ENCODING 173
SWIDTH 333 0
DWIDTH 4 0
BBX 3 1 0 2
BITMAP
E0
ENDCHAR
STARTCHAR Zcaron
ENCODING 174
SWIDTH 611 0
DWIDTH 6 0
BBX 5 11 0 0
BITMAP
50
20
00
F8
88
90
20
20
48
88
F8
ENDCHAR
STARTCHAR Zdotaccent
ENCODING 175
SWIDTH 611 0
DWIDTH 6 0
BBX 5 11 0 0
BITMAP
20
20
00
F8
88
90
20
20
48
88
F8
ENDCHAR
STARTCHAR degree
ENCODING 176
SWIDTH 400 0
DWIDTH 4 0
BBX 3 4 0 4
BITMAP
40
A0
A0
40
ENDCHAR
STARTCHAR aogonek
ENCODING 177
SWIDTH 556 0
DWIDTH 6 0
BBX 6 7 0 -2
BITMAP
60
90
70
90
F8
08
0C
ENDCHAR
STARTCHAR ogonek
ENCODING 178
SWIDTH 490 0
DWIDTH 6 0
BBX 2 3 2 -2
BITMAP
40
80
C0
ENDCHAR
STARTCHAR lslash
ENCODING 179
SWIDTH 315 0
DWIDTH 4 0
BBX 3 8 0 0
BITMAP
C0
40
40
60
C0
40
40
E0
ENDCHAR
STARTCHAR acute
ENCODING 180
SWIDTH 333 0
DWIDTH 3 0
BBX 2 2 0 6
BITMAP
40
80
ENDCHAR
STARTCHAR lcaron
ENCODING 181
SWIDTH 236 0
DWIDTH 3 0
BBX 4 8 0 0
BITMAP
D0
50
60
40
40
40
40
E0
ENDCHAR
STARTCHAR sacute
ENCODING 182
SWIDTH 463 0
DWIDTH 5 0
BBX 4 8 0 0
BITMAP
10
20
00
70
80
60
10
E0
ENDCHAR
STARTCHAR caron
ENCODING 183
SWIDTH 408 0
DWIDTH 5 0
BBX 3 2 1 6
BITMAP
A0
40
ENDCHAR
STARTCHAR cedilla
ENCODING 184
SWIDTH 490 0
DWIDTH 6 0
BBX 2 3 2 -2
BITMAP
80
40
C0
ENDCHAR
STARTCHAR scaron
ENCODING 185
SWIDTH 463 0
DWIDTH 5 0
BBX 4 8 0 0
BITMAP
50
20
00
70
80
60
10
E0
ENDCHAR
STARTCHAR scedilla
ENCODING 186
SWIDTH 463 0
DWIDTH 5 0
BBX 4 7 0 -2
BITMAP
70
80
60
10
E0
40
C0
ENDCHAR
STARTCHAR tcaron
ENCODING 187
SWIDTH 389 0
DWIDTH 3 0
BBX 3 9 0 0
BITMAP
20
20
C0
80
C0
80
80
80
60
ENDCHAR
STARTCHAR zacute
ENCODING 188
SWIDTH 481 0
DWIDTH 5 0
BBX 4 8 0 0
BITMAP
10
20
00
F0
20
40
80
F0
ENDCHAR
STARTCHAR hungarumlaut
ENCODING 189
SWIDTH 572 0
DWIDTH 7 0
BBX 5 2 1 6
BITMAP
48
90
ENDCHAR
STARTCHAR zcaron
ENCODING 190
SWIDTH 481 0
DWIDTH 5 0
BBX 4 8 0 0
BITMAP
50
20
00
F0
20
40
80
F0
ENDCHAR
STARTCHAR zdotaccent
ENCODING 191
SWIDTH 481 0
DWIDTH 5 0
BBX 4 8 0 0
BITMAP
20
20
00
F0
20
40
80
F0
ENDCHAR
STARTCHAR Racute
ENCODING 192
SWIDTH 722 0
DWIDTH 8 0
BBX 7 11 0 0
BITMAP
10
20
00
F8
44
44
48
78
44
44
C6
ENDCHAR
STARTCHAR Aacute
ENCODING 193
SWIDTH 722 0
DWIDTH 8 0
BBX 7 11 0 0
BITMAP
08
10
00
10
10
28
28
44
7C
44
EE
ENDCHAR
STARTCHAR Acircumflex
ENCODING 194
SWIDTH 722 0
DWIDTH 8 0
BBX 7 11 0 0
BITMAP
10
28
00
10
10
28
28
44
7C
44
EE
ENDCHAR
STARTCHAR Abreve
ENCODING 195
SWIDTH 722 0
DWIDTH 8 0
BBX 7 11 0 0
BITMAP
24
18
00
10
10
28
28
44
7C
44
EE
ENDCHAR
STARTCHAR Adieresis
ENCODING 196
SWIDTH 722 0
DWIDTH 8 0
BBX 7 10 0 0
BITMAP
28
00
10
10
28
28
44
7C
44
EE
ENDCHAR
STARTCHAR Lacute
ENCODING 197
SWIDTH 667 0
DWIDTH 7 0
BBX 6 11 0 0
BITMAP
20
40
00
E0
40
40
40
40
44
44
FC
ENDCHAR
STARTCHAR Cacute
ENCODING 198
SWIDTH 722 0
DWIDTH 7 0
BBX 6 11 0 0
BITMAP
08
10
00
3C
44
80
80
80
80
44
38
ENDCHAR
STARTCHAR Ccedilla
ENCODING 199
SWIDTH 722 0
DWIDTH 7 0
BBX 6 10 0 -2
BITMAP
3C
44
80
80
80
80
44
38
10
30
ENDCHAR
STARTCHAR Ccaron
ENCODING 200
SWIDTH 722 0
DWIDTH 7 0
BBX 6 11 0 0
BITMAP
14
08
00
3C
44
80
80
80
80
44
38
ENDCHAR
STARTCHAR Eacute
ENCODING 201
SWIDTH 722 0
DWIDTH 7 0
BBX 6 11 0 0
BITMAP
08
10
00
FC
44
54
70
50
44
44
FC
ENDCHAR
STARTCHAR Eogonek
ENCODING 202
SWIDTH 722 0
DWIDTH 7 0
BBX 7 10 0 -2
BITMAP
FC
44
54
70
50
44
44
FC
04
06
ENDCHAR
STARTCHAR Edieresis
ENCODING 203
SWIDTH 722 0
DWIDTH 7 0
BBX 6 10 0 0
BITMAP
28
00
FC
44
54
70
50
44
44
FC
ENDCHAR
STARTCHAR Ecaron
ENCODING 204
SWIDTH 722 0
DWIDTH 7 0
BBX 6 11 0 0
BITMAP
28
10
00
FC
44
54
70
50
44
44
FC
ENDCHAR
STARTCHAR Iacute
ENCODING 205
SWIDTH 407 0
DWIDTH 4 0
BBX 3 11 0 0
BITMAP
20
40
00
E0
40
40
40
40
40
40
E0
ENDCHAR
STARTCHAR Icircumflex
ENCODING 206
SWIDTH 407 0
DWIDTH 4 0
BBX 3 11 0 0
BITMAP
40
A0
00
E0
40
40
40
40
40
40
E0
ENDCHAR
STARTCHAR Dcaron
ENCODING 207
SWIDTH 778 0
DWIDTH 8 0
BBX 7 11 0 0
BITMAP
28
10
00
F8
44
42
42
42
42
44
F8
ENDCHAR
STARTCHAR Eth
ENCODING 208
SWIDTH 778 0
DWIDTH 8 0
BBX 7 8 0 0
BITMAP
F8
44
42
E2
42
42
44
F8
ENDCHAR
STARTCHAR Nacute
ENCODING 209
SWIDTH 815 0
DWIDTH 9 0
BBX 8 11 0 0
BITMAP
04
08
00
E7
62
52
52
4A
4A
46
E6
ENDCHAR
STARTCHAR Ncaron
ENCODING 210
SWIDTH 815 0
DWIDTH 9 0
BBX 8 11 0 0
BITMAP
14
08
00
E7
62
52
52
4A
4A
46
E6
ENDCHAR
STARTCHAR Oacute
ENCODING 211
SWIDTH 778 0
DWIDTH 8 0
BBX 7 11 0 0
BITMAP
08
10
00
38
44
82
82
82
82
44
38
ENDCHAR
STARTCHAR Ocircumflex
ENCODING 212
SWIDTH 778 0
DWIDTH 8 0
BBX 7 11 0 0
BITMAP
10
28
00
38
44
82
82
82
82
44
38
ENDCHAR
STARTCHAR Ohungarumlaut
ENCODING 213
SWIDTH 778 0
DWIDTH 8 0
BBX 7 11 0 0
BITMAP
14
28
00
38
44
82
82
82
82
44
38
ENDCHAR
STARTCHAR Odieresis
ENCODING 214
SWIDTH 778 0
DWIDTH 8 0
BBX 7 10 0 0
BITMAP
28
00
38
44
82
82
82
82
44
38
ENDCHAR
STARTCHAR multiply
ENCODING 215
SWIDTH 606 0
DWIDTH 6 0
BBX 5 5 0 0
BITMAP
88
50
20
50
88
ENDCHAR
STARTCHAR Rcaron
ENCODING 216
SWIDTH 722 0
DWIDTH 8 0
BBX 7 11 0 0
BITMAP
28
10
00
F8
44
44
48
78
44
44
C6
ENDCHAR
STARTCHAR Uring
ENCODING 217
SWIDTH 815 0
DWIDTH 8 0
BBX 7 11 0 0
BITMAP
10
28
10
EE
44
44
44
44
44
44
38
ENDCHAR
STARTCHAR Uacute
ENCODING 218
SWIDTH 815 0
DWIDTH 8 0
BBX 7 11 0 0
BITMAP
08
10
00
EE
44
44
44
44
44
44
38
ENDCHAR
STARTCHAR Uhungarumlaut
ENCODING 219
SWIDTH 815 0
DWIDTH 8 0
BBX 7 11 0 0
BITMAP
14
28
00
EE
44
44
44
44
44
44
38
ENDCHAR
STARTCHAR Udieresis
ENCODING 220
SWIDTH 815 0
DWIDTH 8 0
BBX 7 10 0 0
BITMAP
28
00
EE
44
44
44
44
44
44
38
ENDCHAR
STARTCHAR Yacute
ENCODING 221
SWIDTH 704 0
DWIDTH 8 0
BBX 7 11 0 0
BITMAP
08
10
00
C6
44
28
28
10
10
10
38
ENDCHAR
STARTCHAR Tcedilla
ENCODING 222
SWIDTH 667 0
DWIDTH 8 0
BBX 7 10 0 -2
BITMAP
FE
92
92
10
10
10
10
38
10
30
ENDCHAR
STARTCHAR germandbls
ENCODING 223
SWIDTH 574 0
DWIDTH 7 0
BBX 6 8 0 0
BITMAP
30
48
48
58
44
44
54
D8
ENDCHAR
STARTCHAR racute
ENCODING 224
SWIDTH 444 0
DWIDTH 5 0
BBX 4 8 0 0
BITMAP
10
20
00
D0
60
40
40
E0
ENDCHAR
STARTCHAR aacute
ENCODING 225
SWIDTH 556 0
DWIDTH 6 0
BBX 5 8 0 0
BITMAP
20
40
00
60
90
70
90
F8
ENDCHAR
STARTCHAR acircumflex
ENCODING 226
SWIDTH 556 0
DWIDTH 6 0
BBX 5 8 0 0
BITMAP
20
50
00
60
90
70
90
F8
ENDCHAR
STARTCHAR abreve
ENCODING 227
SWIDTH 556 0
DWIDTH 6 0
BBX 5 8 0 0
BITMAP
90
60
00
60
90
70
90
F8
ENDCHAR
STARTCHAR adieresis
ENCODING 228
SWIDTH 556 0
DWIDTH 6 0
BBX 5 7 0 0
BITMAP
50
00
60
90
70
90
F8
ENDCHAR
STARTCHAR lacute
ENCODING 229
SWIDTH 315 0
DWIDTH 4 0
BBX 3 11 0 0
BITMAP
20
40
00
C0
40
40
40
40
40
40
E0
ENDCHAR
STARTCHAR cacute
ENCODING 230
SWIDTH 444 0
DWIDTH 5 0
BBX 4 8 0 0
BITMAP
10
20
00
70
90
80
90
60
ENDCHAR
STARTCHAR ccedilla
ENCODING 231
SWIDTH 444 0
DWIDTH 5 0
BBX 4 7 0 -2
BITMAP
70
90
80
90
60
20
60
ENDCHAR
STARTCHAR ccaron
ENCODING 232
SWIDTH 444 0
DWIDTH 5 0
BBX 4 8 0 0
BITMAP
50
20
00
70
90
80
90
60
ENDCHAR
STARTCHAR eacute
ENCODING 233
SWIDTH 500 0
DWIDTH 5 0
BBX 4 8 0 0
BITMAP
20
40
00
60
90
F0
80
70
ENDCHAR
STARTCHAR eogonek
ENCODING 234
SWIDTH 500 0
DWIDTH 5 0
BBX 4 7 0 -2
BITMAP
60
90
F0
80
70
20
30
ENDCHAR
STARTCHAR edieresis
ENCODING 235
SWIDTH 500 0
DWIDTH 5 0
BBX 4 7 0 0
BITMAP
50
00
60
90
F0
80
70
ENDCHAR
STARTCHAR ecaron
ENCODING 236
SWIDTH 500 0
DWIDTH 5 0
BBX 4 8 0 0
BITMAP
50
20
00
60
90
F0
80
70
ENDCHAR
STARTCHAR iacute
ENCODING 237
SWIDTH 315 0
DWIDTH 4 0
BBX 3 8 0 0
BITMAP
20
40
00
C0
40
40
40
E0
ENDCHAR
STARTCHAR icircumflex
ENCODING 238
SWIDTH 315 0
DWIDTH 4 0
BBX 3 8 0 0
BITMAP
40
A0
00
C0
40
40
40
E0
ENDCHAR
STARTCHAR dcaron
ENCODING 239
SWIDTH 574 0
DWIDTH 6 0
BBX 6 8 0 0
BITMAP
34
14
18
70
90
90
90
78
ENDCHAR
STARTCHAR dmacron
ENCODING 240
SWIDTH 574 0
DWIDTH 6 0
BBX 5 8 0 0
BITMAP
10
78
10
70
90
90
90
78
ENDCHAR
STARTCHAR nacute
ENCODING 241
SWIDTH 611 0
DWIDTH 7 0
BBX 6 8 0 0
BITMAP
08
10
00
B0
48
48
48
EC
ENDCHAR
STARTCHAR ncaron
ENCODING 242
SWIDTH 611 0
DWIDTH 7 0
BBX 6 8 0 0
BITMAP
28
10
00
B0
48
48
48
EC
ENDCHAR
STARTCHAR oacute
ENCODING 243
SWIDTH 500 0
DWIDTH 5 0
BBX 4 8 0 0
BITMAP
20
40
00
60
90
90
90
60
ENDCHAR
STARTCHAR ocircumflex
ENCODING 244
SWIDTH 500 0
DWIDTH 5 0
BBX 4 8 0 0
BITMAP
20
50
00
60
90
90
90
60
ENDCHAR
STARTCHAR ohungarumlaut
ENCODING 245
SWIDTH 500 0
DWIDTH 5 0
BBX 5 8 0 0
BITMAP
28
50
00
60
90
90
90
60
ENDCHAR
STARTCHAR odieresis
ENCODING 246
SWIDTH 500 0
DWIDTH 5 0
BBX 4 7 0 0
BITMAP
50
00
60
90
90
90
60
ENDCHAR
STARTCHAR divide
ENCODING 247
SWIDTH 606 0
DWIDTH 6 0
BBX 5 5 0 0
BITMAP
20
00
F8
00
20
ENDCHAR
STARTCHAR rcaron
ENCODING 248
SWIDTH 444 0
DWIDTH 5 0
BBX 4 8 0 0
BITMAP
50
20
00
D0
60
40
40
E0
ENDCHAR
STARTCHAR uring
ENCODING 249
SWIDTH 611 0
DWIDTH 6 0
BBX 5 8 0 0
BITMAP
20
50
20
90
90
90
90
68
ENDCHAR
STARTCHAR uacute
ENCODING 250
SWIDTH 611 0
DWIDTH 6 0
BBX 5 8 0 0
BITMAP
20
40
00
90
90
90
90
68
ENDCHAR
STARTCHAR uhungarumlaut
ENCODING 251
SWIDTH 611 0
DWIDTH 6 0
BBX 5 8 0 0
BITMAP
28
50
00
90
90
90
90
68
ENDCHAR
STARTCHAR udieresis
ENCODING 252
SWIDTH 611 0
DWIDTH 6 0
BBX 5 7 0 0
BITMAP
50
00
90
90
90
90
68
ENDCHAR
STARTCHAR yacute
ENCODING 253
SWIDTH 537 0
DWIDTH 6 0
BBX 6 10 0 -2
BITMAP
10
20
00
DC
88
50
50
20
20
C0
ENDCHAR
STARTCHAR tcedilla
ENCODING 254
SWIDTH 389 0
DWIDTH 3 0
BBX 3 9 0 -2
BITMAP
80
80
C0
80
80
80
60
20
60
ENDCHAR
STARTCHAR dotaccent
ENCODING 255
SWIDTH 408 0
DWIDTH 5 0
BBX 1 1 2 6
BITMAP
80
ENDCHAR
ENDFONT
